# xmcd
#
# Track frame offsets: 
#        150
#        16642
#        29017
#        40025
#        56677
#        72957
#        87125
#        102410
#        119287
#        131957
#        141220
#        150090
#        165340
#        181532
#
# Disc length: 2663 seconds
#
# Revision: 0
# Processed by: cddbd v1.5.2PL0 Copyright (c) Steve Scherf et al.
# Submitted via: ExactAudioCopy v0.99pb4
#
DISCID=a90a650e
DTITLE=DV8 - Big Green Monsters
DYEAR=1998
DGENRE=Rock
TTITLE0=Give It To You
TTITLE1=Zombie White Toast
TTITLE2=Henry (Drive Me Anywhere)
TTITLE3=Down To The Sea
TTITLE4=Call Me I'm A Minute (Not Too Far Away)
TTITLE5=The Meeting
TTITLE6=Big Green Monsters
TTITLE7=Lighten Up Your Load
TTITLE8=Miracle
TTITLE9=Future Shock
TTITLE10=Stab In The Dark
TTITLE11=Technical Electrical
TTITLE12=Darby Street Blues
TTITLE13=Inside Line
EXTD=
EXTT0=
EXTT1=
EXTT2=
EXTT3=
EXTT4=
EXTT5=
EXTT6=
EXTT7=
EXTT8=
EXTT9=
EXTT10=
EXTT11=
EXTT12=
EXTT13=
PLAYORDER=
